<?xml version="1.0" standalone="no"?>
<!DOCTYPE svg PUBLIC "-//W3C//DTD SVG 20010904//EN"
 "http://www.w3.org/TR/2001/REC-SVG-20010904/DTD/svg10.dtd">
<svg version="1.0" xmlns="http://www.w3.org/2000/svg"
 width="260.000000pt" height="260.000000pt" viewBox="0 0 260.000000 260.000000"
 preserveAspectRatio="xMidYMid meet">
<metadata>
Created by potrace 1.14, written by Peter Selinger 2001-2017
</metadata>
<g transform="translate(0.000000,260.000000) scale(0.100000,-0.100000)"
fill="#000000" stroke="none">
<path d="M0 1300 l0 -1300 1300 0 1300 0 0 1300 0 1300 -1300 0 -1300 0 0
-1300z m1920 901 c32 -17 78 -60 93 -86 14 -25 23 -136 36 -440 6 -132 15
-289 21 -350 9 -95 8 -131 -10 -261 -28 -213 -57 -287 -153 -391 -55 -59 -98
-80 -231 -110 -136 -30 -355 -40 -561 -25 -203 15 -308 54 -357 135 -13 21
-41 62 -64 91 -76 101 -117 220 -129 372 -3 49 -13 147 -22 217 -11 98 -14
194 -10 416 4 274 5 290 26 327 26 47 68 77 138 99 71 23 117 14 164 -33 42
-42 54 -87 70 -250 5 -57 16 -131 25 -165 9 -35 19 -141 24 -242 4 -99 15
-236 24 -305 15 -113 20 -130 52 -176 19 -29 43 -59 53 -68 20 -18 152 -45
263 -53 l77 -5 53 50 c29 28 67 74 85 104 31 52 32 55 33 188 1 74 -3 227 -9
340 -14 263 -14 435 0 485 35 128 191 197 309 136z"/>
</g>
</svg>
